HIERARCHY
ROOT Hips
{
  OFFSET 90.7885 88.945 -76.2838
  CHANNELS 6 Xposition Yposition Zposition Zrotation Xrotation Yrotation
  JOINT LeftUpLeg
  {
    OFFSET 8.64259 1.95398 -2.38835
    CHANNELS 3 Zrotation Xrotation Yrotation
    JOINT LeftLeg
    {
      OFFSET 43.7702 0 0
      CHANNELS 3 Zrotation Xrotation Yrotation
      JOINT LeftFoot
      {
        OFFSET 40.6238 0 0
        CHANNELS 3 Zrotation Xrotation Yrotation
        JOINT LeftToeBase
        {
          OFFSET 12.7242 0 0
          CHANNELS 3 Zrotation Xrotation Yrotation
          End Site
          {
            OFFSET 0 0 0
          }
        }
      }
    }
  }
  JOINT RightUpLeg
  {
    OFFSET -8.2249 1.95398 -2.59336
    CHANNELS 3 Zrotation Xrotation Yrotation
    JOINT RightLeg
    {
      OFFSET 43.5653 0 0
      CHANNELS 3 Zrotation Xrotation Yrotation
      JOINT RightFoot
      {
        OFFSET 40.6238 0 0
        CHANNELS 3 Zrotation Xrotation Yrotation
        JOINT RightToeBase
        {
          OFFSET 12.7242 0 0
          CHANNELS 3 Zrotation Xrotation Yrotation
          End Site
          {
            OFFSET 0 0 0
          }
        }
      }
    }
  }
  JOINT Spine
  {
    OFFSET 0.165834 0.87714 6.61349
    CHANNELS 3 Zrotation Xrotation Yrotation
    JOINT Spine1
    {
      OFFSET 7.38963 1.71661e-005 0
      CHANNELS 3 Zrotation Xrotation Yrotation
      JOINT Spine2
      {
        OFFSET 11.9445 1.14441e-005 0
        CHANNELS 3 Zrotation Xrotation Yrotation
        JOINT Spine3
        {
          OFFSET 14.7254 4.19617e-005 0
          CHANNELS 3 Zrotation Xrotation Yrotation
          JOINT Spine4
          {
            OFFSET 10.9679 0 0
            CHANNELS 3 Zrotation Xrotation Yrotation
            JOINT RightShoulder
            {
              OFFSET 2.46616 -1.6653 3.69651
              CHANNELS 3 Zrotation Xrotation Yrotation
              JOINT RightArm
              {
                OFFSET 13.0012 0 0
                CHANNELS 3 Zrotation Xrotation Yrotation
                JOINT RightForeArm
                {
                  OFFSET 28.7848 1.52588e-005 0
                  CHANNELS 3 Zrotation Xrotation Yrotation
                  JOINT RightHand
                  {
                    OFFSET 26.5688 1.52588e-005 0
                    CHANNELS 3 Zrotation Xrotation Yrotation
                    End Site
                    {
                      OFFSET 0 0 0
                    }
                  }
                }
              }
            }
            JOINT LeftShoulder
            {
              OFFSET 2.38034 -1.29275 -3.7523
              CHANNELS 3 Zrotation Xrotation Yrotation
              JOINT LeftArm
              {
                OFFSET 16.3182 6.10352e-005 0
                CHANNELS 3 Zrotation Xrotation Yrotation
                JOINT LeftForeArm
                {
                  OFFSET 27.0901 0 0
                  CHANNELS 3 Zrotation Xrotation Yrotation
                  JOINT LeftHand
                  {
                    OFFSET 24.5451 1.52588e-005 0
                    CHANNELS 3 Zrotation Xrotation Yrotation
                    End Site
                    {
                      OFFSET 0 0 0
                    }
                  }
                }
              }
            }
            JOINT Neck
            {
              OFFSET 5.0226 -0.0266342 0
              CHANNELS 3 Zrotation Xrotation Yrotation
              JOINT Head
              {
                OFFSET 6.69363 2.86102e-005 0
                CHANNELS 3 Zrotation Xrotation Yrotation
                End Site
                {
                  OFFSET 0 0 0
                }
              }
            }
          }
        }
      }
    }
  }
}
MOTION
Frames:	9
Frame Time:	0.0416667
-151.694 82.9781 -126.327 70.567 -33.9694 76.2405 -169.553 6.20679 94.6519 -43.3319 14.9827 -6.1728 100.547 16.0047 -4.98961 39.346 5.10663 -11.1352 -154.418 63.2772 72.8681 -94.0313 6.30287 -3.91084 92.992 -16.0724 -2.22432 15.4717 -2.58602 7.0986 -3.2097 8.44183 -89.6322 10.0344 -6.22908 1.24667 -1.62243 -6.16816 1.52061 -24.2779 -6.31466 -0.690735 -4.26528 -6.31466 -0.690731 99.4625 -26.3336 -87.9727 53.728 -31.9187 57.23 -50.0899 -38.1526 -58.5758 -39.0196 -1.9403 -11.6919 -85.0411 -12.9586 77.8595 -10.0607 -18.8872 -70.8941 52.1242 -3.12495 -88.6373 21.2248 -0.246328 -5.08961 43.2083 2.97917 -16.5711 -16.7841 11.267 2.43406 
-142.559 85.073 -119.213 68.1798 -38.2347 78.7875 -171.789 -6.19032 90.3865 -25.0428 12.8423 -3.12643 80.7617 9.23374 -0.581085 50.6087 2.24901 -10.972 -159.862 68.2712 81.4098 -77.5953 1.0017 -4.56407 89.4824 -14.6276 -2.49678 13.8468 -1.40052 5.12112 -3.33389 8.60888 -90.4466 9.65935 -6.84816 -0.35355 -1.99344 -6.85705 -0.0503687 -24.6608 -6.42398 -2.40387 -4.64818 -6.42399 -2.40387 98.9381 -22.0021 -89.6666 52.7899 -24.5851 61.7712 -48.1263 -31.2628 -58.7964 -39.7034 -0.680692 -14.4662 -82.4887 -3.1359 81.3051 -19.3653 -23.2263 -70.2679 51.4983 -3.3866 -91.788 20.9816 -0.916534 -8.3614 53.2612 6.12711 -14.6833 -23.4153 14.3819 2.74985 
-132.556 87.526 -111.585 67.104 -43.6831 81.5522 -175.401 -14.8117 91.9125 -15.201 9.92781 0.978982 55.8409 -0.92149 2.96097 48.0389 5.83757 -17.1086 -173.642 65.6762 97.2433 -59.1756 -9.05093 -2.70516 82.0505 -11.2022 -1.51222 18.2996 -1.08916 4.09003 -2.98877 8.85772 -91.2135 9.10616 -6.5036 -1.94458 -2.5495 -6.58286 -1.65535 -25.1766 -5.61809 -3.81392 -5.16401 -5.61807 -3.81393 93.4667 -18.559 -103.734 54.0043 -7.31824 64.7707 -44.3997 -27.0923 -61.8265 -44.6482 0.147628 -14.9973 -82.3209 -1.67211 81.3134 -19.9977 -21.0331 -67.427 50.596 -4.24218 -91.9989 19.9282 -1.5689 -11.8602 58.487 9.62592 -11.6639 -26.9916 16.1369 2.88344 
-123.175 88.5204 -103.908 66.4231 -47.4792 81.4448 -175.689 -15.5803 89.903 -21.9041 17.052 0.745112 53.1061 -2.70262 4.06452 22.3552 0.852828 0.276718 177.696 60.4988 105.346 -47.9632 -15.7756 0.592185 80.625 -10.5272 -1.8842 21.991 -1.69015 4.82727 -2.61344 8.82617 -91.6221 9.14523 -5.93789 -2.79118 -2.51457 -6.05491 -2.52648 -25.1036 -4.82492 -4.44843 -5.09094 -4.82491 -4.44843 89.202 -14.8757 -116.299 55.6769 3.56791 63.4974 -39.0404 -24.4731 -65.6289 -45.2293 0.54893 -14.6889 -83.5087 -7.74639 79.943 -16.7393 -10.5983 -63.3897 53.7763 -7.07142 -91.4577 16.759 -1.14576 -10.6398 55.2249 13.7271 -6.9002 -24.3657 16.817 1.36679 
-114.881 87.8911 -96.9341 68.1841 -48.3601 80.1801 -172.767 -11.8093 88.3936 -39.2622 20.8848 -2.01375 55.0513 -1.87493 3.03188 33.3918 3.40399 -6.30248 173.161 54.9572 105.915 -47.9016 -9.56238 2.57957 80.34 -10.2694 -1.50434 23.261 -1.6594 4.5956 -2.56063 8.88007 -91.6067 9.04035 -5.82475 -2.77514 -2.61994 -5.94119 -2.51546 -25.2061 -4.72184 -4.39896 -5.19345 -4.72184 -4.39895 87.4064 -24.4995 -114.626 45.8236 2.40264 52.6265 -36.019 -21.7132 -68.8189 -46.0676 0.709427 -13.9784 -86.2 -20.1046 77.9204 -10.0091 3.08026 -58.0192 61.6585 -9.94014 -89.5045 17.3789 0.0690428 -3.43177 55.4483 15.8343 -4.90343 -24.0547 17.4902 1.34721 
-106.687 87.9211 -89.6114 71.6838 -49.2507 81.6986 -168.116 -3.55314 93.5662 -62.3687 15.389 -2.0152 51.1424 -3.35709 2.44932 32.5238 5.17852 -8.76662 170.6 47.6138 104.23 -52.1631 -8.18652 3.96482 78.3631 -8.89722 -1.16432 13.9019 0.0102166 2.76452 -2.35393 9.01556 -91.5949 8.77124 -5.40448 -2.79927 -2.89096 -5.52239 -2.55824 -25.4646 -4.31384 -4.29499 -5.45197 -4.31385 -4.295 88.2008 -31.8078 -109.555 36.4178 1.42642 35.4921 -38.0942 -20.9758 -72.4873 -46.1842 -0.00440732 -12.243 -89.4758 -34.0584 75.5364 -4.70932 18.5913 -47.6607 66.2107 -12.2128 -86.4779 15.3076 -0.143927 -4.81018 53.6066 16.5139 -3.27419 -20.8436 17.1286 1.1202 
-99.0044 87.0691 -82.1634 72.0009 -52.0386 83.8457 -163.557 9.11577 95.6528 -84.1319 7.16828 0.60377 55.9146 -1.40602 4.67434 31.769 4.82002 -7.99321 170.144 40.9669 105.294 -57.0268 -9.42038 4.17571 86.7796 -12.7435 0.428566 16.5446 -1.21208 4.51635 -1.75819 8.94338 -91.9819 8.90503 -4.38975 -3.62547 -2.76303 -4.54496 -3.42875 -25.2913 -3.09854 -4.77594 -5.27867 -3.09854 -4.77594 89.255 -32.6615 -107.198 32.1102 5.70959 17.5441 -37.0222 -18.8776 -76.7911 -43.9067 0.205376 -12.6184 -91.3447 -46.172 75.78 -7.57056 31.8997 -25.3262 64.154 -14.3871 -84.8076 14.0538 -0.130188 -4.6446 47.6889 18.2509 2.70955 -15.131 15.7291 -1.2968 
-91.7952 85.9526 -75.6109 69.3269 -59.1666 83.27 -160.968 26.7894 97.2603 -101.242 7.41781 3.80065 61.2602 0.815016 8.31148 28.999 7.69609 -11.2652 173.656 34.6111 105.946 -58.9381 -11.1688 2.71614 95.1268 -16.344 2.32349 15.4805 -1.75292 5.5809 -0.5669 8.83263 -92.0359 9.15906 -2.04173 -3.88797 -2.51587 -2.21073 -3.79451 -25.0071 -0.780121 -4.32102 -4.99441 -0.780107 -4.32101 89.0533 -32.11 -107.798 31.2223 10.2835 -0.985314 -39.8568 -15.298 -83.4986 -45.0019 -0.276191 -11.3031 -89.4495 -47.5564 79.045 -22.6524 36.4243 9.43112 66.7928 -21.1084 -86.1323 11.2682 -0.131045 -4.71135 43.7244 17.7406 5.36568 -12.5242 13.9966 -0.914521 
-84.1054 84.853 -68.5007 66.7125 -64.7271 79.2014 -163.283 42.5781 97.6096 -109.915 12.1621 5.92484 67.0192 3.8124 11.9139 26.2813 9.3234 -12.4406 178.078 26.8832 102.159 -59.2248 -11.3837 -0.184375 102.81 -18.9417 4.87512 19.5176 -1.46455 4.66109 0.695965 8.57404 -91.625 9.72547 0.652212 -3.27685 -1.94952 0.507446 -3.30234 -24.4583 1.60649 -2.92987 -4.44563 1.6065 -2.92987 88.8101 -28.8898 -109.569 31.581 19.2821 -18.4458 -35.6762 -13.5717 -91.1484 -47.7609 0.146145 -11.2533 -86.2106 -41.5593 83.0337 -37.5106 37.5137 42.2878 68.0176 -30.254 -87.2433 16.9067 0.216996 -2.68466 38.2109 15.1437 7.0596 -9.55167 11.1306 -1.5437 
